<svg width="478" height="71" viewBox="0 0 478 71" fill="none" xmlns="http://www.w3.org/2000/svg">
<path d="M71.8058 30.4103L70.2106 31.5248L70.2021 31.5292L50.3113 31.8736L61.1159 24.3061L61.1287 24.302L64.4637 21.9623H64.4679L64.7018 21.7964H64.7062L65.493 21.2435L65.7313 21.5284L66.3822 22.3026L66.8246 22.8302L72.3927 29.4702L72.6735 29.8021L71.8058 30.4103ZM59.4102 50.2457L58.4701 51.7515L56.1561 55.4523L55.3095 56.8094L50.4857 64.53L49.6605 65.8487L47.9803 68.5327L46.4658 65.9039L45.7171 64.6109L41.3529 57.0519L40.587 55.7246L40.149 54.9633L39.8767 54.4952L40.5659 54.0104H40.57V54.0062L54.2419 44.4352L55.535 43.5333L69.8829 33.4858L59.4102 50.2457ZM43.2712 65.9634L41.4549 64.6874H41.4506L39.26 64.7258L27.6215 64.9298H27.6173L25.6692 64.9638V64.4406L26.3668 63.9514L32.2626 59.8253L33.3854 59.0384L36.0951 57.1454H36.0994L38.0519 55.7671H38.0561L38.2944 55.6012H38.2985L38.8516 55.2142L39.1621 55.7501L39.5238 56.3754V56.3797L39.9277 57.0774L44.2922 64.6364L45.0408 65.9294L46.2702 68.0607L43.2712 65.9634ZM25.6522 31.1548L25.1374 31.4526L25.0864 31.4823L25.1034 31.3973L25.4904 29.5766L25.6692 28.7344L28.4595 15.6157L28.7447 14.2587L30.9183 4.03691L36.797 14.2204L37.6009 15.6115L37.7371 15.8454L38.6432 17.4108L40.6594 17.7681L46.9253 18.8741L42.7055 21.3115L41.3444 22.0942L28.4255 29.5553L26.2136 30.8315L25.6692 31.1463L25.6522 31.1548ZM24.2144 28.6366V28.6577L24.0271 29.5341V29.5383L23.5804 31.6397L13.4735 19.5929L13.4693 19.5887L11.5976 17.3598L10.3938 15.9261L12.3036 14.5862L14.5071 13.0464L15.5324 12.3276L29.8123 2.32681L27.328 14.0119L27.0431 15.3647H27.0389L25.6692 21.8177L24.4143 27.7135L24.2144 28.6366ZM24.074 48.5188L21.0069 50.6669L20.756 50.8413L19.3651 51.8154L19.28 51.8749L14.8644 54.9675L12.7758 53.3341L17.9399 45.4858L19.0969 43.729L21.9259 39.4326L24.0951 36.1317L24.1633 36.0338L24.074 48.5188ZM24.0441 52.496V52.5002L24.0314 54.0614L24.0186 56.0139L24.0101 57.3538L23.9761 62.0841L23.9632 63.7898L24.0441 63.8537L23.9591 63.9132L23.823 64.0111L23.7295 63.6069L23.2403 61.5098L22.2788 57.3837L21.9684 56.0479L20.3263 56.0778L19.8541 56.0863L18.3781 56.1118L16.3789 56.1458H16.3746L15.6259 56.1585L16.0301 55.8779L18.8503 53.904L19.701 53.3042L20.5774 52.6916L21.1005 52.326L22.4491 51.3815L24.0613 50.2542L24.0441 52.496ZM11.6402 52.445L3.1411 45.8048L16.298 38.2076L17.6295 37.4419L23.0063 34.3365H23.0105L23.5932 33.9962L23.6061 33.9921L23.7548 33.9027L23.8952 33.822L23.823 33.9367H23.8187L23.806 33.9622L22.7467 35.5703L18.6461 41.7978L17.5017 43.5418L11.6402 52.445ZM3.56645 39.1688L3.91943 37.5014L8.17746 17.4788L9.30896 16.6876L12.2314 20.1715V20.1756L14.1329 22.4388L14.1371 22.443L22.7042 32.6478L22.8232 32.7882L18.4121 35.3363L17.2933 35.9828L15.9706 36.7443L2.41794 44.5712L3.56645 39.1688ZM49.6562 33.3583V33.354L49.6392 33.3284L49.669 33.3241H49.6732L68.1006 33.0051L54.8246 42.2997L49.6562 33.3583ZM48.8735 35.1362L53.5314 43.2058L41.6675 51.5134L48.8735 35.1362ZM33.5811 43.5886L47.9461 33.5284L48.0398 33.4645L47.9845 33.5922L39.396 53.1043L39.2558 53.4191L39.1664 53.266L33.5811 43.5886ZM32.5092 44.3373L32.556 44.3074L32.7134 44.5754L38.1411 53.9805L35.5293 55.814L33.5641 57.1879L32.1518 58.1749L31.0288 58.9617L25.6692 62.7179V49.1271L32.5092 44.3373ZM27.4643 32.9966L30.4546 32.2225H30.4631L30.4716 32.2183L45.0197 28.4621L47.0232 31.9332H47.0274L47.2358 32.299L45.6705 33.3965H45.6661L32.8708 42.3592L27.8768 33.7071L27.4643 32.9966ZM28.9104 37.9948L31.8455 43.0739L31.5989 43.2483L25.6692 47.4V33.4603L25.8946 33.4008L26.2136 33.3199L26.4518 33.7326L28.9104 37.9948ZM49.1203 19.2569H49.1245L50.9791 18.1808H50.9835L56.054 15.2542L54.4928 18.8017L53.9186 20.1035L51.6981 25.1568L50.9111 26.9393L49.1415 30.9676L49.1373 30.9719L48.7671 31.8141L48.5247 31.3973L46.5977 28.0538L45.8023 26.6799L44.2283 27.0882L28.5448 31.1378L42.0632 23.3364L43.4201 22.5494L49.1203 19.2569ZM58.1596 14.0418V14.0375L59.0273 13.5397L64.5786 20.1545L64.0935 20.4948L62.4898 21.6178L60.7884 22.8088L57.2152 25.3101L51.4088 29.3767L52.6807 26.4841L53.4675 24.7018V24.6975L55.3775 20.3629L55.9518 19.057L58.1596 14.0418ZM74.209 29.4149L73.8475 28.981L73.1882 28.1984L68.5643 22.6854L68.3516 22.4345L67.2626 21.1371L67.1817 21.0392L66.6672 20.4224L65.7526 19.3335L60.2822 12.8168L59.3463 11.7023L59.1337 11.8255L58.0916 12.4252L57.0323 13.0379H57.0281L48.797 17.7978H48.7926L39.7533 16.2028L38.5665 14.1482L37.7626 12.7529L31.4075 1.74406L31.1862 1.36538L30.3994 -4.57764e-05L30.2887 0.0766754L29.1103 0.906013L14.7454 10.9619L13.7202 11.6809L9.38133 14.7181L8.65402 15.2287L8.2967 15.4796L6.92692 16.4367L6.45055 18.6868L2.36258 37.9054L2.0096 39.573L1.03532 44.1585V44.1629L0.741864 45.5368L0.720703 45.6303L1.87771 46.5364L2.0181 46.4557L1.9839 46.6173L10.8957 53.5765V53.5807L12.0315 54.4656L13.7074 55.7756L14.2306 56.184L14.8731 56.6861L15.9065 57.4942L18.0548 57.4602H18.0592L18.0932 57.4559L19.5691 57.4304L20.6285 57.4134L21.1899 59.9061L21.6621 61.9905L22.3427 65.0192H22.3809L22.3469 65.0404L22.6362 66.3208L22.9935 66.3166L23.9421 66.2996L24.3548 66.2911L25.6692 66.2697L27.1026 66.2442H27.107L29.2551 66.2061L41.0806 66.0018H41.0848L46.9805 70.1323L47.793 70.698V70.7022L48.2227 71L48.8395 70.0174L48.9075 69.9069L51.4598 65.8189L52.2894 64.496L57.1132 56.7754L57.9597 55.4227L59.3251 53.2362L60.2652 51.7304L72.0098 32.9371L72.9201 31.4781L73.052 31.2654L73.5881 30.891L74.7621 30.07L74.209 29.4149Z" fill="white"/>
<path d="M28.7515 32.9616C28.7515 35.0024 27.097 36.6567 25.0562 36.6567C23.0154 36.6567 21.3611 35.0024 21.3611 32.9616C21.3611 30.9206 23.0154 29.2663 25.0562 29.2663C27.097 29.2663 28.7515 30.9206 28.7515 32.9616Z" fill="#00FF00"/>
<path d="M53.2874 32.9616C53.2874 35.0024 51.6331 36.6567 49.5923 36.6567C47.5513 36.6567 45.897 35.0024 45.897 32.9616C45.897 30.9206 47.5513 29.2663 49.5923 29.2663C51.6331 29.2663 53.2874 30.9206 53.2874 32.9616Z" fill="#00FF00"/>
<path d="M43.5325 53.5068C43.5325 55.5476 41.878 57.2021 39.8372 57.2021C37.7964 57.2021 36.1421 55.5476 36.1421 53.5068C36.1421 51.4661 37.7964 49.8117 39.8372 49.8117C41.878 49.8117 43.5325 51.4661 43.5325 53.5068Z" fill="#00FF00"/>
<path d="M117.756 35.3209H122.048V47.5251C120.498 48.8378 118.688 49.828 116.618 50.5001C114.546 51.1698 112.406 51.5057 110.202 51.5057C107.787 51.5057 105.567 51.1093 103.54 50.3208C101.512 49.53 99.7539 48.4123 98.2642 46.9673C96.7746 45.5225 95.6119 43.8311 94.7763 41.8933C93.943 39.9557 93.5264 37.8254 93.5264 35.5C93.5264 33.1749 93.943 31.0443 94.7763 29.1067C95.6119 27.1689 96.7812 25.4777 98.2867 24.0328C99.7919 22.588 101.557 21.4701 103.585 20.6793C105.612 19.8907 107.845 19.4943 110.292 19.4943C112.765 19.4943 115.03 19.8975 117.086 20.7018C119.142 21.506 120.885 22.7133 122.317 24.324L119.546 27.0951C118.262 25.8428 116.869 24.9265 115.365 24.3464C113.86 23.7639 112.227 23.4727 110.469 23.4727C108.681 23.4727 107.019 23.7729 105.484 24.3687C103.95 24.9647 102.624 25.798 101.506 26.8709C100.388 27.9441 99.5232 29.2188 98.9117 30.6949C98.3023 32.169 97.9955 33.7729 97.9955 35.5C97.9955 37.198 98.3023 38.7862 98.9117 40.2603C99.5232 41.7367 100.388 43.018 101.506 44.1066C102.624 45.1954 103.943 46.0353 105.462 46.6313C106.983 47.2294 108.636 47.5251 110.424 47.5251C112.093 47.5251 113.694 47.2653 115.231 46.7434C116.109 46.4454 116.949 46.0333 117.756 45.5045V35.3209Z" fill="white"/>
<path d="M130.587 51.1473V19.8528H135.058V47.258H152.002V51.1473H130.587Z" fill="white"/>
<path d="M186.047 29.1063C185.416 27.6194 184.585 26.2755 183.549 25.0785L179.766 27.3428C180.652 28.329 181.359 29.4527 181.888 30.7155C182.499 32.1762 182.805 33.7722 182.805 35.5C182.805 37.2298 182.499 38.824 181.888 40.2826C181.278 41.745 180.428 43.0174 179.341 44.1053C178.251 45.195 176.971 46.0365 175.496 46.6311C174.02 47.2279 172.418 47.527 170.69 47.527C168.931 47.527 167.314 47.2279 165.838 46.6311C164.364 46.0365 163.073 45.195 161.972 44.1053C160.868 43.0174 160.01 41.745 159.4 40.2826C158.79 38.824 158.484 37.2298 158.484 35.5C158.484 33.7722 158.79 32.1762 159.4 30.7155C160.01 29.257 160.868 27.9828 161.972 26.8948C163.073 25.8069 164.364 24.9638 165.838 24.3689C167.314 23.7724 168.931 23.4731 170.69 23.4731C172.418 23.4731 174.02 23.7724 175.496 24.3689C175.639 24.4273 175.783 24.4876 175.923 24.5514L175.853 20.1942C174.241 19.7275 172.52 19.4941 170.69 19.4941C168.276 19.4941 166.055 19.897 164.028 20.7025C162 21.5062 160.243 22.6316 158.754 24.0772C157.261 25.5227 156.099 27.2149 155.266 29.1515C154.43 31.0901 154.015 33.2057 154.015 35.5C154.015 37.7944 154.43 39.9119 155.266 41.8485C156.099 43.7854 157.261 45.4773 158.754 46.9229C160.243 48.3684 162.008 49.4939 164.05 50.2975C166.091 51.1031 168.306 51.504 170.69 51.504C173.073 51.504 175.271 51.1106 177.283 50.3202C179.296 49.5315 181.053 48.4136 182.559 46.968C184.063 45.5225 185.225 43.8305 186.047 41.8937C186.865 39.9551 187.275 37.8246 187.275 35.5C187.275 33.1756 186.865 31.0449 186.047 29.1063Z" fill="white"/>
<path d="M208.108 51.505C205.723 51.505 203.526 51.1105 201.513 50.3202C199.503 49.5309 197.759 48.4132 196.283 46.9673C194.807 45.5221 193.653 43.8308 192.819 41.893C191.984 39.9561 191.566 37.8246 191.566 35.5C191.566 33.1753 191.984 31.0447 192.819 29.1069C193.653 27.1699 194.815 25.4787 196.306 24.0328C197.796 22.5874 199.546 21.4699 201.559 20.6797C203.571 19.8904 205.769 19.4949 208.153 19.4949C210.566 19.4949 212.794 19.9051 214.837 20.7243C216.878 21.5446 218.614 22.7586 220.045 24.368L217.138 27.1846C215.946 25.9326 214.604 25.0016 213.115 24.3903C211.625 23.7798 210.03 23.4738 208.331 23.4738C206.574 23.4738 204.941 23.7722 203.437 24.368C201.931 24.9645 200.627 25.7986 199.525 26.8715C198.422 27.9446 197.564 29.2188 196.954 30.694C196.343 32.1694 196.037 33.7718 196.037 35.5C196.037 37.229 196.343 38.8307 196.954 40.3059C197.564 41.7813 198.422 43.0554 199.525 44.1284C200.627 45.2013 201.931 46.0361 203.437 46.6321C204.941 47.2285 206.574 47.5263 208.331 47.5263C210.03 47.5263 211.625 47.2207 213.115 46.6096C214.604 45.9993 215.946 45.0526 217.138 43.7707L220.045 46.5873C218.614 48.1967 216.878 49.4191 214.837 50.2533C212.794 51.0882 210.551 51.505 208.108 51.505Z" fill="white"/>
<path d="M230.553 39.7473L237.303 24.3935L244.051 39.7473H230.553ZM239.536 19.8526H235.111L220.939 51.1475H225.544L228.983 43.3226H245.621L249.06 51.1475H253.754L239.536 19.8526Z" fill="white"/>
<path d="M258.402 51.1471V19.8526H262.873V47.2578H279.817V51.1471H258.402Z" fill="white"/>
<path d="M307.228 49.9175C305.08 49.9175 303.1 49.562 301.287 48.8504C299.475 48.1392 297.904 47.1326 296.575 45.8299C295.246 44.5276 294.205 43.0044 293.454 41.2587C292.702 39.5137 292.326 37.5937 292.326 35.4996C292.326 33.4054 292.702 31.4859 293.454 29.7403C294.205 27.9952 295.252 26.4718 296.595 25.1693C297.938 23.8674 299.515 22.8602 301.328 22.1486C303.14 21.4373 305.12 21.0813 307.268 21.0813C309.443 21.0813 311.45 21.4508 313.289 22.1888C315.128 22.9277 316.692 24.0216 317.981 25.4713L315.363 28.0083C314.289 26.8807 313.081 26.0419 311.739 25.4915C310.396 24.9414 308.959 24.6657 307.429 24.6657C305.845 24.6657 304.375 24.9344 303.019 25.4713C301.663 26.0087 300.488 26.7602 299.495 27.7265C298.502 28.6932 297.729 29.841 297.179 31.1698C296.629 32.4989 296.354 33.9426 296.354 35.4996C296.354 37.0568 296.629 38.4999 297.179 39.8291C297.729 41.1578 298.502 42.3056 299.495 43.2723C300.488 44.239 301.663 44.9909 303.019 45.5275C304.375 46.065 305.845 46.3331 307.429 46.3331C308.959 46.3331 310.396 46.0583 311.739 45.5075C313.081 44.9576 314.289 44.1051 315.363 42.9503L317.981 45.4873C316.692 46.9374 315.128 48.0385 313.289 48.79C311.45 49.542 309.429 49.9175 307.228 49.9175Z" fill="white"/>
<path d="M323.74 49.5958V21.4039H327.767V49.5958H323.74Z" fill="white"/>
<path d="M340.253 46.0919H347.865C350.201 46.0919 352.221 45.6488 353.925 44.7628C355.63 43.8767 356.952 42.6351 357.893 41.0376C358.833 39.4403 359.303 37.594 359.303 35.4999C359.303 33.379 358.833 31.5265 357.893 29.942C356.952 28.358 355.63 27.1229 353.925 26.2367C352.221 25.3507 350.201 24.9076 347.865 24.9076H340.253V46.0919ZM336.225 49.5958V21.4039H348.105C351.113 21.4039 353.765 21.9947 356.06 23.1761C358.356 24.3577 360.14 26.009 361.418 28.1295C362.691 30.2512 363.33 32.7077 363.33 35.4999C363.33 38.2926 362.691 40.7494 361.418 42.87C360.14 44.9912 358.356 46.6426 356.06 47.8236C353.765 49.0055 351.113 49.5958 348.105 49.5958H336.225Z" fill="white"/>
<path d="M373.481 39.3249L379.561 25.4924L385.64 39.3249H373.481ZM381.572 21.4027H377.585L364.819 49.5962H368.968L372.063 42.5485H387.055L390.151 49.5962H394.381L381.572 21.4027Z" fill="white"/>
<path d="M402.596 46.0919H410.209C412.545 46.0919 414.565 45.6488 416.269 44.7628C417.973 43.8767 419.296 42.6351 420.237 41.0376C421.176 39.4403 421.647 37.594 421.647 35.4999C421.647 33.379 421.176 31.5265 420.237 29.942C419.296 28.358 417.973 27.1229 416.269 26.2367C414.565 25.3507 412.545 24.9076 410.209 24.9076H402.596V46.0919ZM398.569 49.5958V21.4039H410.449C413.457 21.4039 416.108 21.9947 418.404 23.1761C420.7 24.3577 422.484 26.009 423.761 28.1295C425.035 30.2512 425.674 32.7077 425.674 35.4999C425.674 38.2926 425.035 40.7494 423.761 42.87C422.484 44.9912 420.7 46.6426 418.404 47.8236C416.108 49.0055 413.457 49.5958 410.449 49.5958H398.569Z" fill="white"/>
<path d="M452.294 46.0912V49.5962H431.834V21.4027H451.729V24.9077H435.86V33.5655H450V36.9893H435.86V46.0912H452.294Z" fill="white"/>
<path d="M467.035 49.9182C464.885 49.9182 462.832 49.5897 460.872 48.9316C458.911 48.274 457.367 47.421 456.241 46.3742L457.729 43.2327C458.803 44.1729 460.172 44.9511 461.838 45.5688C463.502 46.1867 465.233 46.495 467.035 46.495C468.67 46.495 469.998 46.3074 471.02 45.9311C472.04 45.5556 472.791 45.0389 473.275 44.3805C473.759 43.7232 474.001 42.978 474.001 42.1456C474.001 41.1788 473.685 40.4004 473.053 39.8095C472.424 39.2195 471.606 38.7422 470.598 38.3797C469.59 38.0173 468.482 37.7022 467.275 37.4335C466.067 37.1655 464.851 36.8494 463.632 36.4869C462.408 36.1246 461.294 35.6613 460.288 35.0978C459.281 34.5337 458.469 33.7755 457.851 32.8219C457.233 31.8693 456.925 30.641 456.925 29.1372C456.925 27.6871 457.307 26.3516 458.071 25.1297C458.837 23.9084 460.018 22.9286 461.616 22.1898C463.214 21.4515 465.247 21.0822 467.719 21.0822C469.354 21.0822 470.98 21.2974 472.591 21.7265C474.201 22.1564 475.597 22.7738 476.779 23.5792L475.451 26.8013C474.243 25.9957 472.967 25.4116 471.624 25.0491C470.282 24.6868 468.98 24.5054 467.719 24.5054C466.133 24.5054 464.831 24.7068 463.811 25.1097C462.79 25.5124 462.046 26.0497 461.576 26.7205C461.106 27.3922 460.872 28.1442 460.872 28.9758C460.872 29.9694 461.188 30.7618 461.818 31.3521C462.448 31.9429 463.268 32.4132 464.275 32.7613C465.281 33.1109 466.389 33.4262 467.597 33.7081C468.804 33.9899 470.02 34.306 471.242 34.6547C472.464 35.004 473.577 35.4601 474.585 36.0238C475.593 36.5877 476.403 37.3397 477.02 38.2793C477.638 39.2195 477.946 40.4278 477.946 41.9036C477.946 43.3271 477.556 44.6492 476.779 45.8707C476.001 47.0929 474.799 48.0728 473.175 48.8107C471.55 49.5493 469.504 49.9182 467.035 49.9182Z" fill="white"/>
</svg>
