<svg width="48" height="48" viewBox="0 0 48 48" fill="none" xmlns="http://www.w3.org/2000/svg">
<path d="M46.0835 20.694L45.0493 21.4179L45.0438 21.4208L32.1489 21.6445L39.1534 16.729L39.1617 16.7263L41.3237 15.2066H41.3264L41.4781 15.0988H41.4809L41.991 14.7397L42.1455 14.9248L42.5675 15.4276L42.8542 15.7703L46.464 20.0834L46.646 20.2989L46.0835 20.694ZM38.0476 33.5781L37.4381 34.5563L35.938 36.9601L35.3892 37.8416L32.262 42.8565L31.727 43.7131L30.6377 45.4565L29.6559 43.749L29.1706 42.9091L26.3413 37.9991L25.8448 37.137L25.5608 36.6425L25.3843 36.3384L25.8311 36.0235H25.8338V36.0208L34.6971 29.8039L35.5353 29.2181L44.8369 22.6917L38.0476 33.5781ZM27.5849 43.7876L26.4074 42.9588H26.4046L24.9845 42.9837L17.4394 43.1162H17.4367L16.1737 43.1383V42.7985L16.626 42.4807L20.4482 39.8006L21.1761 39.2895L22.9327 38.0599H22.9355L24.2013 37.1646H24.204L24.3585 37.0568H24.3612L24.7198 36.8055L24.921 37.1535L25.1555 37.5597V37.5625L25.4174 38.0157L28.2468 42.9256L28.7321 43.7655L29.5291 45.1499L27.5849 43.7876ZM16.1627 21.1776L15.829 21.371L15.796 21.3903L15.807 21.3351L16.0579 20.1525L16.1737 19.6054L17.9827 11.0841L18.1676 10.2027L19.5767 3.56311L23.3878 10.1778L23.9089 11.0814L23.9972 11.2334L24.5846 12.2501L25.8917 12.4822L29.9538 13.2006L27.2181 14.7839L26.3358 15.2922L17.9607 20.1386L16.5267 20.9676L16.1737 21.1721L16.1627 21.1776ZM15.2306 19.5419V19.5556L15.1092 20.1249V20.1276L14.8196 21.4926L8.26744 13.6675L8.26474 13.6648L7.05137 12.217L6.27092 11.2858L7.50904 10.4154L8.93751 9.41521L9.6022 8.94831L18.8597 2.45231L17.2492 10.0424L17.0644 10.9211H17.0618L16.1737 15.1127L15.3602 18.9423L15.2306 19.5419ZM15.1396 32.4564L13.1513 33.8517L12.9886 33.965L12.0869 34.5977L12.0318 34.6364L9.16917 36.6452L7.81517 35.5842L11.163 30.4863L11.9131 29.3452L13.747 26.5545L15.1533 24.4103L15.1975 24.3468L15.1396 32.4564ZM15.1202 35.0398V35.0426L15.112 36.0566L15.1037 37.3249L15.0982 38.1952L15.0761 41.2678L15.0678 42.3758L15.1202 42.4172L15.0651 42.4559L14.9769 42.5195L14.9163 42.2569L14.5991 40.8948L13.9758 38.2146L13.7746 37.347L12.71 37.3664L12.4039 37.3719L11.4471 37.3885L10.151 37.4106H10.1482L9.66284 37.4188L9.92487 37.2365L11.7532 35.9544L12.3047 35.5648L12.8728 35.1669L13.2119 34.9294L14.0862 34.3159L15.1314 33.5837L15.1202 35.0398ZM7.07894 35.0067L1.56911 30.6935L10.0986 25.7588L10.9617 25.2614L14.4475 23.2443H14.4502L14.828 23.0233L14.8363 23.0206L14.9327 22.9625L15.0237 22.9101L14.9769 22.9846H14.9741L14.9659 23.0012L14.2792 24.0457L11.6208 28.0908L10.8789 29.2236L7.07894 35.0067ZM1.84486 26.3831L2.07369 25.3001L4.83411 12.2943L5.56765 11.7804L7.46224 14.0434V14.0461L8.69497 15.5161L8.69766 15.5188L14.2516 22.1474L14.3288 22.2386L11.4691 23.8937L10.7438 24.3136L9.88628 24.8083L1.1003 29.8923L1.84486 26.3831ZM31.7242 22.6089V22.6061L31.7132 22.5895L31.7325 22.5867H31.7352L43.6815 22.3795L35.0748 28.4168L31.7242 22.6089ZM31.2168 23.7637L34.2364 29.0053L26.5452 34.4016L31.2168 23.7637ZM21.303 29.254L30.6156 22.7193L30.6763 22.6779L30.6404 22.7608L25.0727 35.4349L24.9818 35.6394L24.9238 35.54L21.303 29.254ZM20.608 29.7403L20.6384 29.7209L20.7404 29.895L24.2591 36.0041L22.5659 37.195L21.2919 38.0875L20.3764 38.7285L19.6483 39.2396L16.1737 41.6795V32.8515L20.608 29.7403ZM17.3375 22.374L19.2761 21.8711H19.2816L19.2871 21.8684L28.7184 19.4286L30.0173 21.6832H30.02L30.1551 21.9208L29.1403 22.6337H29.1375L20.8425 28.4555L17.6049 22.8355L17.3375 22.374ZM18.275 25.6206L20.1778 28.9197L20.0179 29.033L16.1737 31.7297V22.6752L16.3199 22.6365L16.5267 22.584L16.6811 22.852L18.275 25.6206ZM31.3768 13.4493H31.3795L32.5818 12.7503H32.5847L35.8718 10.8493L34.8597 13.1536L34.4875 13.9992L33.0479 17.2816L32.5377 18.4394L31.3905 21.056L31.3878 21.0588L31.1478 21.6059L30.9907 21.3351L29.7414 19.1633L29.2258 18.2709L28.2054 18.5361L18.038 21.1666L26.8018 16.0991L27.6814 15.5879L31.3768 13.4493ZM37.2369 10.0618V10.059L37.7994 9.73569L41.3982 14.0323L41.0837 14.2534L40.0441 14.9828L38.9411 15.7564L36.6246 17.3811L32.8604 20.0226L33.685 18.1437L34.195 16.9861V16.9832L35.4333 14.1677L35.8056 13.3194L37.2369 10.0618ZM47.6414 20.0474L47.4071 19.7656L46.9797 19.2572L43.9821 15.6763L43.8442 15.5133L43.1382 14.6706L43.0858 14.607L42.7522 14.2064L42.1593 13.499L38.6129 9.26608L38.0062 8.54216L37.8683 8.62219L37.1928 9.01177L36.506 9.40969H36.5033L31.1672 12.5015H31.1644L25.3043 11.4655L24.5349 10.1309L24.0138 9.2246L19.8938 2.07378L19.7504 1.8278L19.2403 0.940891L19.1685 0.990723L18.4046 1.52942L9.09199 8.06127L8.42742 8.5283L5.61456 10.5011L5.14306 10.8327L4.91141 10.9957L4.02341 11.6174L3.71458 13.079L1.06441 25.5625L0.835576 26.6457L0.203962 29.6242V29.627L0.0137185 30.5195L0 30.5802L0.750071 31.1688L0.841088 31.1163L0.818914 31.2213L6.59629 35.7417V35.7444L7.33263 36.3192L8.4191 37.1701L8.7583 37.4354L9.1748 37.7615L9.84475 38.2864L11.2375 38.2643H11.2403L11.2623 38.2615L12.2192 38.245L12.9059 38.2339L13.2699 39.8531L13.576 41.207L14.0172 43.1743H14.042L14.0199 43.1881L14.2075 44.0197L14.4391 44.017L15.0541 44.006L15.3216 44.0005L16.1737 43.9866L17.103 43.97H17.1059L18.4984 43.9452L26.1648 43.8126H26.1675L29.9896 46.4955L30.5164 46.863V46.8657L30.7949 47.0591L31.1948 46.4209L31.2389 46.3491L32.8935 43.6937L33.4313 42.8344L36.5584 37.8195L37.1073 36.9408L37.9924 35.5206L38.6019 34.5425L46.2158 22.3353L46.8059 21.3876L46.8914 21.2494L47.2389 21.0063L48 20.473L47.6414 20.0474Z" fill="white"/>
<path d="M18.172 22.3511C18.172 23.6767 17.0994 24.7513 15.7764 24.7513C14.4534 24.7513 13.3809 23.6767 13.3809 22.3511C13.3809 21.0254 14.4534 19.9508 15.7764 19.9508C17.0994 19.9508 18.172 21.0254 18.172 22.3511Z" fill="#00FF00"/>
<path d="M34.0785 22.3511C34.0785 23.6767 33.006 24.7513 31.683 24.7513C30.3598 24.7513 29.2874 23.6767 29.2874 22.3511C29.2874 21.0254 30.3598 19.9508 31.683 19.9508C33.006 19.9508 34.0785 21.0254 34.0785 22.3511Z" fill="#00FF00"/>
<path d="M27.7543 35.6964C27.7543 37.022 26.6816 38.0967 25.3586 38.0967C24.0356 38.0967 22.9631 37.022 22.9631 35.6964C22.9631 34.3708 24.0356 33.2962 25.3586 33.2962C26.6816 33.2962 27.7543 34.3708 27.7543 35.6964Z" fill="#00FF00"/>
</svg>
